<svg xmlns="http://www.w3.org/2000/svg" viewBox="0 0 1080 1080"><defs><style>.e3b7036e-4183-4e22-acd2-6170a91cf589{fill:#fce300;}</style></defs><g id="fdd22ded-c985-4bce-a4d4-ee980c2e3a76" data-name="Layer 1"><path class="e3b7036e-4183-4e22-acd2-6170a91cf589" d="M128.84,527.49V627h22.75V556.46H174.8V627h22.48V556.46h23.49V627h22.47V527.49Z"/><path class="e3b7036e-4183-4e22-acd2-6170a91cf589" d="M243.17,418.64v-22H128.84v112H243.17v-22.3H157.75V463.62h85.42v-22H157.75v-23Z"/><path class="e3b7036e-4183-4e22-acd2-6170a91cf589" d="M472,396.62v22H386.58v23H472v22H386.58v22.72H472v22.28H357.66v-112Z"/><path class="e3b7036e-4183-4e22-acd2-6170a91cf589" d="M512.15,463.65v22.72h85.42v22.29H483.23v-112H597.57v22H512.15v45Z"/><path class="e3b7036e-4183-4e22-acd2-6170a91cf589" d="M838.68,416.88v71.47A20.27,20.27,0,0,0,859,508.62h73.82A20.28,20.28,0,0,0,953,488.35V416.88a20.28,20.28,0,0,0-20.27-20.27H859A20.27,20.27,0,0,0,838.68,416.88Zm76,69.44H877.05a9.43,9.43,0,0,1-9.43-9.43V428.06a9.43,9.43,0,0,1,9.43-9.43h37.62a9.43,9.43,0,0,1,9.43,9.43v48.83A9.43,9.43,0,0,1,914.67,486.32Z"/><path class="e3b7036e-4183-4e22-acd2-6170a91cf589" d="M278.76,486.61h67.69v22h-92v-112h24.36Z"/><path class="e3b7036e-4183-4e22-acd2-6170a91cf589" d="M608.8,396.62h107v21.7H674v90.35h-23.7V418.32H608.8Z"/><path class="e3b7036e-4183-4e22-acd2-6170a91cf589" d="M806.2,465.6l21.38,43H801.17L783,471.2c-2.4.12-4.49.13-6,.13H751.25v37.29H726.88v-112h24.37v.09c5.94,0,23.64-.09,30.28-.09,13.46,0,43.35-.05,43.35,37.4C824.88,453.36,816.29,460.37,806.2,465.6ZM792.76,434c0-15.54-5.15-15.56-12.73-15.56H751.25v31.13h28.4C786.59,449.56,792.75,449.67,792.76,434Z"/><path class="e3b7036e-4183-4e22-acd2-6170a91cf589" d="M145.63,647.29c1.15,0,2.39.06,3.6.12v-5a55.09,55.09,0,0,0-5.58-.5c-6.47,0-10.31,2.09-10.31,8.33v5h-6.85v5h6.85v28.53h6.41V660.23h9.48v-5h-9.48v-4.7C139.75,647.79,141.49,647.29,145.63,647.29Z"/><path class="e3b7036e-4183-4e22-acd2-6170a91cf589" d="M170.68,654.08c-13.06,0-19.47,8.25-19.47,17.94s6.41,17.9,19.47,17.9,19.46-8.25,19.46-17.9S183.74,654.08,170.68,654.08Zm0,30.46c-9.28,0-12.67-6.47-12.67-12.52s3.39-12.56,12.67-12.56,12.67,6.47,12.67,12.56S180,684.54,170.68,684.54Z"/><path class="e3b7036e-4183-4e22-acd2-6170a91cf589" d="M214.54,654.08c-4.22,0-8.53,2-11.52,7.3h-.14v-6.14h-6.41v33.52h6.41v-17c0-7.3,4.43-11,10.75-11a17.85,17.85,0,0,1,4.55.65v-6.91A12.09,12.09,0,0,0,214.54,654.08Z"/><path class="e3b7036e-4183-4e22-acd2-6170a91cf589" d="M280.09,673.08c0-13.89-9.33-19-18.17-19-13.05,0-19.46,8.25-19.46,17.94s6.41,17.9,19.46,17.9c6.59,0,14.09-3.25,17.28-11.32h-6.79c-2.16,4.73-7.18,5.94-10.81,5.94-5.7,0-11.85-3.69-12.35-10.6h30.84Zm-30.66-4.17c1-6,6.29-9.45,12.17-9.45s10.75,3.4,11.72,9.45Z"/><path class="e3b7036e-4183-4e22-acd2-6170a91cf589" d="M306.29,654.08c-4.81,0-10.13,1.54-13.11,6.21H293v-5h-6.41v33.52H293V669.45c0-6.59,5.2-10,11-10,6.85,0,9.92,2.81,9.92,7.74v21.56h6.41V665.93C320.38,657.54,314.35,654.08,306.29,654.08Z"/><path class="e3b7036e-4183-4e22-acd2-6170a91cf589" d="M358.22,655.24v4.93h-.15c-2.48-3.87-7.53-5.7-13.05-5.7-8.9,0-18.32,4.84-18.32,17.34s9.42,17.28,18.37,17.28c4.38,0,9.43-1,13-6.21h.15v4.88c0,5.49-3.4,10.1-12.5,10.1-6.08,0-10-1.09-11.13-5.43h-6.41c1.36,9.27,9.66,10.42,16.89,10.42,13.77,0,19.56-4.84,19.56-16.89V655.24Zm-12.38,28.47c-7.8,0-12.35-4.93-12.35-11.84s4.55-12,12.35-12,12.38,5.11,12.38,12S353.61,683.71,345.84,683.71Z"/><path class="e3b7036e-4183-4e22-acd2-6170a91cf589" d="M372,655.24v33.52h6.41V655.24Zm0-12.56v7h6.41v-7Z"/><path class="e3b7036e-4183-4e22-acd2-6170a91cf589" d="M405.92,654.08c-4.81,0-10.13,1.54-13.14,6.21h-.12v-5h-6.41v33.52h6.41V669.45c0-6.59,5.17-10,11-10,6.85,0,9.92,2.81,9.92,7.74v21.56H420V665.93C420,657.54,414,654.08,405.92,654.08Z"/><path class="e3b7036e-4183-4e22-acd2-6170a91cf589" d="M464,673.08c0-13.89-9.37-19-18.2-19-13.05,0-19.46,8.25-19.46,17.94s6.41,17.9,19.46,17.9c6.59,0,14.09-3.25,17.28-11.32h-6.79c-2.16,4.73-7.15,5.94-10.81,5.94-5.71,0-11.85-3.69-12.35-10.6H464Zm-30.69-4.17c1-6,6.29-9.45,12.17-9.45s10.75,3.4,11.72,9.45Z"/><path class="e3b7036e-4183-4e22-acd2-6170a91cf589" d="M506.68,673.08c0-13.89-9.33-19-18.17-19-13.05,0-19.46,8.25-19.46,17.94s6.41,17.9,19.46,17.9c6.59,0,14.09-3.25,17.28-11.32H499c-2.16,4.73-7.18,5.94-10.81,5.94-5.7,0-11.85-3.69-12.35-10.6h30.84ZM476,668.91c1-6,6.29-9.45,12.17-9.45,6,0,10.75,3.4,11.73,9.45Z"/><path class="e3b7036e-4183-4e22-acd2-6170a91cf589" d="M531.29,654.08c-4.23,0-8.54,2-11.52,7.3h-.15v-6.14h-6.41v33.52h6.41v-17c0-7.3,4.43-11,10.75-11a17.85,17.85,0,0,1,4.55.65v-6.91A12.06,12.06,0,0,0,531.29,654.08Z"/><path class="e3b7036e-4183-4e22-acd2-6170a91cf589" d="M539.29,655.24v33.52h6.38V655.24Zm0-12.56v7h6.38v-7Z"/><path class="e3b7036e-4183-4e22-acd2-6170a91cf589" d="M573.14,654.08c-4.78,0-10.1,1.54-13.11,6.21h-.12v-5H553.5v33.52h6.41V669.45c0-6.59,5.17-10,11-10,6.85,0,9.92,2.81,9.92,7.74v21.56h6.41V665.93C587.23,657.54,581.21,654.08,573.14,654.08Z"/><path class="e3b7036e-4183-4e22-acd2-6170a91cf589" d="M625.07,655.24v4.93H625c-2.51-3.87-7.56-5.7-13.05-5.7-8.92,0-18.32,4.84-18.32,17.34S603,689.09,612,689.09c4.34,0,9.39-1,13-6.21h.12v4.88c0,5.49-3.4,10.1-12.49,10.1-6.06,0-10-1.09-11.14-5.43H595c1.36,9.27,9.69,10.42,16.93,10.42,13.76,0,19.52-4.84,19.52-16.89V655.24Zm-12.35,28.47c-7.82,0-12.37-4.93-12.37-11.84s4.55-12,12.37-12,12.35,5.11,12.35,12S620.46,683.71,612.72,683.71Z"/><path class="e3b7036e-4183-4e22-acd2-6170a91cf589" d="M680.66,669.56l-9.09-1.21c-4.55-.65-5.59-1.92-5.59-4.16,0-4,4.76-5.11,8.83-5.11,6.68,0,9.87,2.86,10.08,6.26h6.38c-.56-6.53-5.38-11.26-16.4-11.26-9.39,0-15.3,4-15.3,10.82,0,5.2,4.31,8.27,9.1,8.89l10.58,1.41c5.11.71,6.32,2.1,6.32,4.5s-2,5.22-10.22,5.22-10.58-3.69-10.58-6.7h-6.41c.71,9.72,9.48,11.7,17.16,11.7,10.25,0,16.84-3.64,16.84-11.47C692.36,673.73,689.11,670.72,680.66,669.56Z"/><path class="e3b7036e-4183-4e22-acd2-6170a91cf589" d="M716.26,654.08c-13.06,0-19.47,8.25-19.47,17.94s6.41,17.9,19.47,17.9,19.46-8.25,19.46-17.9S729.31,654.08,716.26,654.08Zm0,30.46c-9.31,0-12.68-6.47-12.68-12.52s3.37-12.56,12.68-12.56,12.67,6.47,12.67,12.56S725.53,684.54,716.26,684.54Z"/><path class="e3b7036e-4183-4e22-acd2-6170a91cf589" d="M742,642.68v46.08h6.41V642.68Z"/><path class="e3b7036e-4183-4e22-acd2-6170a91cf589" d="M783.6,655.24v19.32c0,6.61-5.19,10-11,10-6.86,0-9.93-2.81-9.93-7.74V655.24h-6.41v22.83c0,8.39,6,11.85,14.09,11.85,4.82,0,10.13-1.54,13.15-6.21h.11v5H790V655.24Z"/><path class="e3b7036e-4183-4e22-acd2-6170a91cf589" d="M816.63,660.23v-5H807V644.93h-6.38v10.31h-6.94v5h6.94V682c0,4.84,2.54,7.92,8.83,7.92a40.85,40.85,0,0,0,7.15-.45V684.1a25,25,0,0,1-4.4.44c-3.28,0-5.2-.95-5.2-3.63V660.23Z"/><path class="e3b7036e-4183-4e22-acd2-6170a91cf589" d="M821.5,655.24v33.52h6.41V655.24Zm0-12.56v7h6.41v-7Z"/><path class="e3b7036e-4183-4e22-acd2-6170a91cf589" d="M853.7,654.08c-13.06,0-19.44,8.25-19.44,17.94s6.38,17.9,19.44,17.9,19.47-8.25,19.47-17.9S866.79,654.08,853.7,654.08Zm0,30.46c-9.27,0-12.67-6.47-12.67-12.52s3.4-12.56,12.67-12.56,12.7,6.47,12.7,12.56S863,684.54,853.7,684.54Z"/><path class="e3b7036e-4183-4e22-acd2-6170a91cf589" d="M899.16,654.08c-4.79,0-10.1,1.54-13.12,6.21h-.11v-5h-6.41v33.52h6.41V669.45c0-6.59,5.17-10,11-10,6.83,0,9.93,2.81,9.93,7.74v21.56h6.38V665.93C913.25,657.54,907.25,654.08,899.16,654.08Z"/><path class="e3b7036e-4183-4e22-acd2-6170a91cf589" d="M941.43,669.56l-9.1-1.21c-4.55-.65-5.55-1.92-5.55-4.16,0-4,4.72-5.11,8.83-5.11,6.65,0,9.87,2.86,10,6.26h6.41c-.59-6.53-5.37-11.26-16.39-11.26-9.42,0-15.3,4-15.3,10.82,0,5.2,4.28,8.27,9.1,8.89L940,675.2c5.14.71,6.35,2.1,6.35,4.5s-2,5.22-10.25,5.22-10.57-3.69-10.57-6.7h-6.38c.68,9.72,9.45,11.7,17.16,11.7,10.22,0,16.84-3.64,16.84-11.47C953.16,673.73,949.88,670.72,941.43,669.56Z"/><path class="e3b7036e-4183-4e22-acd2-6170a91cf589" d="M379.91,587v20.14h75.75v19.77H354.27V527.6H455.66v19.51H379.91V587Z"/><path class="e3b7036e-4183-4e22-acd2-6170a91cf589" d="M877.76,587v20.14h75.75v19.77H852.12V527.6H953.51v19.51H877.76V587Z"/><path class="e3b7036e-4183-4e22-acd2-6170a91cf589" d="M721,547.11V628H701.28V552.21h0V526.56H800.6V628H781.09V547.11Z"/><path class="e3b7036e-4183-4e22-acd2-6170a91cf589" d="M339.61,527.49V547H279.52v20.41h60.09V587H279.52v20.17h60.09v19.79H257.89V527.49Z"/><path class="e3b7036e-4183-4e22-acd2-6170a91cf589" d="M543.9,527.5h21.63v99.43H543.9V587H492v39.95H470.33V527.5H492v39.94H543.9Z"/><path class="e3b7036e-4183-4e22-acd2-6170a91cf589" d="M815.84,626.93V527.5h21.62v99.43Z"/><path class="e3b7036e-4183-4e22-acd2-6170a91cf589" d="M582.17,526.57V627.94h19.77V588.08h60v39.86H681.5V526.57Zm19.77,39.89V547.11h60.69v19.35Z"/></g></svg>