<svg xmlns="http://www.w3.org/2000/svg" viewBox="0 0 820 489" width="820" height="489">
	<style>
		tspan { white-space:pre }
		.shp0 { fill: #212322 } 
		.shp1 { fill: #fce300 } 
	</style>
	<g id="a24da2c8-048a-48d9-a328-e868f11f1ed4">
		<path id="Layer" class="shp0" d="M-126 -296L965.64 -296L965.64 795.64L-126 795.64L-126 -296Z" />
		<path id="Layer" class="shp1" d="M338.2 231.16L338.2 288.57L351.34 288.57L351.34 247.88L364.74 247.88L364.74 288.57L377.74 288.57L377.74 247.88L391.3 247.88L391.3 288.57L404.3 288.57L404.3 231.16L338.2 231.16Z" />
		<path id="Layer" class="shp1" d="M404.2 168.33L404.2 155.62L338.2 155.62L338.2 220.27L404.2 220.27L404.2 207.4L354.89 207.4L354.89 194.29L404.2 194.29L404.2 181.59L354.89 181.59L354.89 168.33L404.2 168.33Z" />
		<path id="Layer" class="shp1" d="M536.29 155.62L536.29 168.32L487 168.32L487 181.59L536.31 181.59L536.31 194.29L487 194.29L487 207.41L536.31 207.41L536.31 220.27L470.31 220.27L470.31 155.62L536.29 155.62Z" />
		<path id="Layer" class="shp1" d="M559.47 194.31L559.47 207.42L608.77 207.42L608.77 220.29L542.77 220.29L542.77 155.64L608.77 155.64L608.77 168.34L559.47 168.34L559.47 194.34L559.47 194.31Z" />
		<path id="Layer" fill-rule="evenodd" class="shp1" d="M748.89 162.84C749.47 161.43 750.33 160.14 751.41 159.05C752.49 157.97 753.77 157.11 755.19 156.51C756.6 155.92 758.12 155.62 759.65 155.61L802.29 155.61C803.83 155.61 805.35 155.91 806.77 156.5C808.19 157.09 809.48 157.95 810.57 159.03C811.66 160.12 812.52 161.41 813.11 162.83C813.7 164.25 814 165.77 814 167.31L814 208.57C814 210.11 813.7 211.63 813.11 213.05C812.52 214.46 811.66 215.75 810.58 216.84C809.49 217.93 808.2 218.79 806.78 219.38C805.37 219.97 803.85 220.27 802.31 220.27L759.7 220.27C758.16 220.27 756.64 219.97 755.22 219.38C753.8 218.79 752.51 217.93 751.43 216.84C750.34 215.76 749.48 214.47 748.89 213.05C748.3 211.63 748 210.11 748 208.57L748 167.31C748 165.78 748.3 164.26 748.89 162.84ZM791.82 207.4C792.53 207.4 793.23 207.26 793.89 206.99C794.55 206.72 795.15 206.32 795.65 205.82C796.15 205.32 796.56 204.72 796.83 204.07C797.11 203.41 797.25 202.71 797.26 202L797.26 173.77C797.26 173.06 797.12 172.35 796.85 171.69C796.57 171.03 796.17 170.43 795.67 169.92C795.16 169.42 794.56 169.02 793.9 168.74C793.24 168.47 792.53 168.33 791.82 168.33L770.1 168.33C769.39 168.33 768.68 168.47 768.02 168.74C767.36 169.01 766.76 169.41 766.25 169.92C765.74 170.43 765.34 171.03 765.07 171.69C764.8 172.35 764.66 173.06 764.66 173.77L764.66 201.95C764.66 202.67 764.8 203.37 765.07 204.03C765.34 204.7 765.74 205.3 766.25 205.8C766.76 206.31 767.36 206.71 768.02 206.98C768.68 207.26 769.38 207.4 770.1 207.4L791.82 207.4Z" />
		<path id="Layer" class="shp1" d="M424.74 207.56L463.82 207.56L463.82 220.27L410.68 220.27L410.68 155.62L424.74 155.62L424.74 207.56Z" />
		<path id="Layer" class="shp1" d="M615.25 155.62L677 155.62L677 168.14L652.9 168.14L652.9 220.3L639.22 220.3L639.22 168.14L615.22 168.14L615.25 155.62Z" />
		<path id="Layer" fill-rule="evenodd" class="shp1" d="M729.21 195.44L741.54 220.27L726.3 220.27L715.83 198.67C714.44 198.74 713.24 198.74 712.36 198.74L697.48 198.74L697.48 220.27L683.42 220.27L683.42 155.62L697.48 155.62L697.48 155.67C700.91 155.67 711.13 155.62 714.96 155.62C722.73 155.62 739.96 155.62 739.96 177.21C740 188.37 735 192.42 729.21 195.44ZM721.44 177.19C721.44 168.19 718.44 168.19 714.1 168.19L697.48 168.19L697.48 186.19L713.88 186.19C717.88 186.17 721.44 186.24 721.44 177.19Z" />
		<path id="Layer" class="shp1" d="M347.9 300.32C348.56 300.32 349.28 300.32 349.98 300.38L349.98 297.5C348.9 297.4 347.9 297.21 346.75 297.21C343.02 297.21 340.8 298.42 340.8 302.02L340.8 304.9L336.85 304.9L336.85 307.78L340.8 307.78L340.8 324.25L344.5 324.25L344.5 307.78L350 307.78L350 304.9L344.5 304.9L344.5 302.19C344.5 300.61 345.51 300.32 347.9 300.32Z" />
		<path id="Layer" fill-rule="evenodd" class="shp1" d="M373.59 314.59C373.59 320.16 369.9 324.92 362.36 324.92C354.82 324.92 351.12 320.19 351.12 314.59C351.12 308.99 354.82 304.24 362.36 304.24C369.89 304.24 373.59 309.02 373.59 314.59ZM369.67 314.59C369.67 311.07 367.68 307.34 362.36 307.34C357.04 307.34 355.04 311.1 355.04 314.59C355.04 318.08 357 321.82 362.36 321.82C367.71 321.82 369.67 318.11 369.67 314.59Z" />
		<path id="Layer" class="shp1" d="M387.68 304.24C386.99 304.24 386.3 304.35 385.63 304.54C384.97 304.74 384.34 305.02 383.75 305.39C383.17 305.76 382.64 306.21 382.18 306.73C381.72 307.25 381.33 307.83 381.03 308.45L380.94 308.45L380.94 304.9L377.24 304.9L377.24 324.25L380.94 324.25L380.94 314.43C380.94 310.22 383.5 308.07 387.15 308.07C387.37 308.07 387.59 308.08 387.81 308.1C388.03 308.12 388.25 308.14 388.47 308.17C388.69 308.21 388.91 308.25 389.13 308.29C389.34 308.34 389.56 308.39 389.77 308.45L389.77 304.45C389.6 304.41 389.43 304.37 389.25 304.34C389.08 304.31 388.91 304.28 388.73 304.27C388.56 304.25 388.38 304.24 388.21 304.23C388.03 304.23 387.86 304.23 387.68 304.24Z" />
		<path id="Layer" fill-rule="evenodd" class="shp1" d="M425.54 315.66L407.74 315.66C408.03 319.65 411.58 321.78 414.87 321.78C416.97 321.78 419.86 321.08 421.11 318.35L425.03 318.35C424.63 319.33 424.09 320.25 423.41 321.07C422.74 321.89 421.94 322.61 421.06 323.19C420.17 323.77 419.19 324.21 418.17 324.5C417.15 324.78 416.09 324.91 415.03 324.88C407.49 324.88 403.79 320.15 403.79 314.55C403.79 308.95 407.49 304.2 415.03 304.2C420.12 304.2 425.51 307.2 425.51 315.2L425.54 315.66ZM421.58 312.8C421.02 309.34 418.17 307.34 414.81 307.34C411.45 307.34 408.38 309.34 407.81 312.8L421.58 312.8Z" />
		<path id="Layer" class="shp1" d="M440.64 304.24C437.86 304.24 434.79 305.12 433.07 307.82L433 307.82L433 304.9L429.3 304.9L429.3 324.25L433 324.25L433 313.1C433 309.3 436 307.34 439.36 307.34C443.36 307.34 445.09 308.96 445.09 311.81L445.09 324.25L448.79 324.25L448.79 311.07C448.77 306.23 445.29 304.24 440.64 304.24Z" />
		<path id="Layer" fill-rule="evenodd" class="shp1" d="M474.31 304.9L474.31 322.63C474.31 329.59 471.02 332.39 463.02 332.39C458.85 332.39 454.06 331.74 453.27 326.39L456.97 326.39C457.64 328.9 459.89 329.53 463.4 329.53C468.61 329.53 470.61 326.87 470.61 323.69L470.61 320.88L470.53 320.88C468.46 323.88 465.55 324.46 463.02 324.46C457.86 324.46 452.42 321.67 452.42 314.46C452.42 307.25 457.86 304.46 462.99 304.46C466.18 304.46 469.09 305.52 470.53 307.75L470.61 307.75L470.61 304.9L474.31 304.9ZM470.61 314.5C470.61 310.56 467.97 307.56 463.47 307.56C458.97 307.56 456.34 310.51 456.34 314.5C456.34 318.49 458.97 321.34 463.47 321.34C468 321.34 470.61 318.44 470.61 314.5Z" />
		<path id="Layer" class="shp1" d="M478.59 304.9L478.59 324.25L482.29 324.25L482.29 304.9L478.59 304.9ZM478.59 297.66L478.59 301.71L482.29 301.71L482.29 297.66L478.59 297.66Z" />
		<path id="Layer" class="shp1" d="M498.15 304.24C495.37 304.24 492.3 305.12 490.56 307.82L490.49 307.82L490.49 304.9L486.79 304.9L486.79 324.25L490.49 324.25L490.49 313.1C490.49 309.3 493.49 307.34 496.85 307.34C500.85 307.34 502.58 308.96 502.58 311.81L502.58 324.25L506.27 324.25L506.27 311.07C506.27 306.23 502.8 304.24 498.15 304.24Z" />
		<path id="Layer" fill-rule="evenodd" class="shp1" d="M531.7 315.66L513.88 315.66C514.17 319.65 517.72 321.78 521.01 321.78C523.12 321.78 526.01 321.08 527.25 318.35L531.17 318.35C530.77 319.33 530.23 320.25 529.55 321.07C528.88 321.89 528.08 322.61 527.2 323.19C526.31 323.77 525.33 324.21 524.31 324.5C523.29 324.78 522.23 324.91 521.17 324.88C513.63 324.88 509.93 320.15 509.93 314.55C509.93 308.95 513.63 304.2 521.17 304.2C526.27 304.2 531.67 307.2 531.67 315.2L531.7 315.66ZM527.77 312.8C527.21 309.34 524.36 307.34 521 307.34C517.64 307.34 514.57 309.34 514 312.8L527.77 312.8Z" />
		<path id="Layer" fill-rule="evenodd" class="shp1" d="M556.33 315.66L538.53 315.66C538.82 319.65 542.37 321.78 545.66 321.78C547.75 321.78 550.65 321.08 551.9 318.35L555.82 318.35C555.42 319.33 554.88 320.25 554.2 321.07C553.53 321.89 552.73 322.6 551.84 323.18C550.95 323.76 549.98 324.2 548.96 324.49C547.94 324.78 546.88 324.91 545.82 324.88C538.29 324.88 534.59 320.15 534.59 314.55C534.59 308.95 538.29 304.2 545.82 304.2C550.92 304.2 556.31 307.2 556.31 315.2L556.33 315.66ZM552.37 312.8C551.81 309.34 548.98 307.34 545.61 307.34C542.24 307.34 539.17 309.34 538.61 312.8L552.37 312.8Z" />
		<path id="Layer" class="shp1" d="M570.51 304.24C569.82 304.24 569.13 304.35 568.47 304.54C567.8 304.74 567.17 305.02 566.58 305.39C566 305.76 565.47 306.21 565.01 306.73C564.55 307.25 564.16 307.83 563.86 308.45L563.78 308.45L563.78 304.9L560.08 304.9L560.08 324.25L563.78 324.25L563.78 314.43C563.78 310.22 566.34 308.07 569.98 308.07C570.2 308.07 570.42 308.08 570.65 308.1C570.87 308.12 571.09 308.14 571.31 308.17C571.53 308.21 571.75 308.25 571.96 308.29C572.18 308.34 572.4 308.39 572.61 308.45L572.61 304.45C572.44 304.41 572.27 304.37 572.09 304.34C571.92 304.31 571.74 304.28 571.57 304.27C571.39 304.25 571.22 304.24 571.04 304.23C570.86 304.23 570.69 304.23 570.51 304.24Z" />
		<path id="Layer" class="shp1" d="M575.13 304.9L575.13 324.25L578.82 324.25L578.82 304.9L575.13 304.9ZM575.13 297.66L575.13 301.71L578.82 301.71L578.82 297.66L575.13 297.66Z" />
		<path id="Layer" class="shp1" d="M594.67 304.24C591.91 304.24 588.84 305.12 587.1 307.82L587 307.82L587 304.9L583.29 304.9L583.29 324.25L587 324.25L587 313.1C587 309.3 590 307.34 593.34 307.34C597.34 307.34 599.07 308.96 599.07 311.81L599.07 324.25L602.77 324.25L602.77 311.07C602.81 306.23 599.33 304.24 594.67 304.24Z" />
		<path id="Layer" fill-rule="evenodd" class="shp1" d="M628.35 304.9L628.35 322.63C628.35 329.59 625.02 332.39 617.08 332.39C612.9 332.39 608.09 331.74 607.31 326.39L611.01 326.39C611.67 328.9 613.94 329.53 617.44 329.53C622.65 329.53 624.65 326.87 624.65 323.69L624.65 320.88L624.58 320.88C624.16 321.47 623.67 322.01 623.12 322.48C622.56 322.95 621.95 323.34 621.3 323.65C620.65 323.97 619.95 324.19 619.24 324.33C618.53 324.46 617.8 324.51 617.08 324.46C611.89 324.46 606.47 321.67 606.47 314.46C606.47 307.25 611.89 304.46 617.04 304.46C620.22 304.46 623.13 305.52 624.58 307.75L624.65 307.75L624.65 304.9L628.35 304.9ZM624.65 314.5C624.65 310.56 622.04 307.56 617.52 307.56C613 307.56 610.38 310.51 610.38 314.5C610.38 318.49 613 321.34 617.52 321.34C622 321.34 624.65 318.44 624.65 314.5Z" />
		<path id="Layer" class="shp1" d="M656.74 313.17L651.49 312.47C648.86 312.1 648.26 311.36 648.26 310.07C648.26 307.78 651.01 307.07 653.36 307.07C657.22 307.07 659.06 308.72 659.18 310.68L662.86 310.68C662.54 306.92 659.76 304.19 653.4 304.19C647.97 304.19 644.56 306.51 644.56 310.43C644.56 313.43 647.05 315.2 649.82 315.56L655.92 316.38C658.92 316.79 659.57 317.59 659.57 318.97C659.57 320.35 658.43 321.97 653.67 321.97C648.91 321.97 647.57 319.84 647.57 318.1L643.86 318.1C644.27 323.71 649.34 324.85 653.77 324.85C659.69 324.85 663.49 322.75 663.49 318.23C663.49 315.58 661.62 313.84 656.74 313.17Z" />
		<path id="Layer" fill-rule="evenodd" class="shp1" d="M688.52 314.59C688.52 320.16 684.81 324.92 677.28 324.92C669.75 324.92 666.05 320.19 666.05 314.59C666.05 308.99 669.75 304.24 677.28 304.24C684.82 304.24 688.52 309.02 688.52 314.59ZM684.6 314.59C684.6 311.07 682.65 307.34 677.28 307.34C671.91 307.34 669.97 311.1 669.97 314.59C669.97 318.08 671.91 321.82 677.28 321.82C682.64 321.82 684.6 318.11 684.6 314.59Z" />
		<path id="Layer" class="shp1" d="M692.17 297.66L692.17 324.25L695.87 324.25L695.87 297.66L692.17 297.66Z" />
		<path id="Layer" class="shp1" d="M716.16 304.9L716.16 316.05C716.16 319.87 713.16 321.82 709.8 321.82C705.8 321.82 704.07 320.2 704.07 317.35L704.07 304.9L700.37 304.9L700.37 318.08C700.37 322.92 703.85 324.92 708.5 324.92C711.28 324.92 714.35 324.03 716.09 321.34L716.16 321.34L716.16 324.25L719.86 324.25L719.86 304.9L716.16 304.9Z" />
		<path id="Layer" class="shp1" d="M735.22 307.78L735.22 304.9L729.68 304.9L729.68 299L726 299L726 304.95L722 304.95L722 307.83L726 307.83L726 320.4C726 323.2 727.47 324.97 731.1 324.97C731.44 324.98 731.79 324.98 732.13 324.97C732.48 324.97 732.82 324.95 733.17 324.93C733.51 324.91 733.85 324.88 734.2 324.84C734.54 324.81 734.88 324.76 735.22 324.71L735.22 321.61C735.01 321.65 734.8 321.69 734.59 321.72C734.38 321.75 734.17 321.78 733.96 321.8C733.74 321.82 733.53 321.84 733.32 321.85C733.11 321.86 732.89 321.87 732.68 321.87C730.79 321.87 729.68 321.32 729.68 319.77L729.68 307.78L735.22 307.78Z" />
		<path id="Layer" class="shp1" d="M738 304.9L738 324.25L741.7 324.25L741.7 304.9L738 304.9ZM738 297.66L738 301.71L741.7 301.71L741.7 297.66L738 297.66Z" />
		<path id="Layer" fill-rule="evenodd" class="shp1" d="M767.86 314.59C767.86 320.16 764.15 324.92 756.62 324.92C749.09 324.92 745.4 320.19 745.4 314.59C745.4 308.99 749.09 304.24 756.62 304.24C764.18 304.24 767.86 309.02 767.86 314.59ZM763.95 314.59C763.95 311.07 761.93 307.34 756.62 307.34C751.31 307.34 749.31 311.1 749.31 314.59C749.31 318.08 751.27 321.82 756.62 321.82C762 321.82 763.95 318.11 763.95 314.59Z" />
		<path id="Layer" class="shp1" d="M782.86 304.24C780.1 304.24 777.03 305.12 775.29 307.82L775.22 307.82L775.22 304.9L771.52 304.9L771.52 324.25L775.22 324.25L775.22 313.1C775.22 309.3 778.22 307.34 781.58 307.34C785.52 307.34 787.31 308.96 787.31 311.81L787.31 324.25L791 324.25L791 311.07C791 306.23 787.54 304.24 782.86 304.24Z" />
		<path id="Layer" class="shp1" d="M807.26 313.17L802.01 312.47C799.39 312.1 798.81 311.36 798.81 310.07C798.81 307.78 801.53 307.07 803.9 307.07C807.74 307.07 809.6 308.72 809.7 310.68L813.4 310.68C813.06 306.92 810.3 304.19 803.94 304.19C798.5 304.19 795.11 306.51 795.11 310.43C795.11 313.43 797.58 315.2 800.36 315.56L806.44 316.38C809.44 316.79 810.11 317.59 810.11 318.97C810.11 320.35 808.97 321.97 804.19 321.97C799.41 321.97 798.09 319.84 798.09 318.1L794.41 318.1C794.8 323.71 799.86 324.85 804.31 324.85C810.21 324.85 814.03 322.75 814.03 318.23C814 315.58 812.14 313.84 807.26 313.17Z" />
		<path id="Layer" class="shp1" d="M483.13 265.52L483.13 277.15L526.86 277.15L526.86 288.56L468.33 288.56L468.33 231.22L526.86 231.22L526.86 242.49L483.13 242.49L483.13 265.49L483.13 265.52Z" />
		<path id="Layer" class="shp1" d="M770.51 265.52L770.51 277.15L814.24 277.15L814.24 288.56L755.71 288.56L755.71 231.22L814.24 231.22L814.24 242.49L770.51 242.49L770.51 265.49L770.51 265.52Z" />
		<path id="Layer" class="shp1" d="M680.05 242.49L680.05 289.15L668.64 289.15L668.64 245.43L668.64 245.43L668.64 230.62L726 230.62L726 289.15L714.71 289.15L714.71 242.49L680.05 242.49Z" />
		<path id="Layer" class="shp1" d="M459.87 231.16L459.87 242.44L425.18 242.44L425.18 254.22L459.87 254.22L459.87 265.5L425.18 265.5L425.18 277.14L459.87 277.14L459.87 288.56L412.7 288.56L412.7 231.16L459.87 231.16Z" />
		<path id="Layer" class="shp1" d="M577.8 231.17L590.28 231.17L590.28 288.56L577.8 288.56L577.8 265.5L547.8 265.5L547.8 288.56L535.33 288.56L535.33 231.17L547.81 231.17L547.81 254.23L577.81 254.23L577.8 231.17Z" />
		<path id="Layer" class="shp1" d="M734.77 288.56L734.77 231.17L747.25 231.17L747.25 288.56L734.77 288.56Z" />
		<path id="Layer" fill-rule="evenodd" class="shp1" d="M657.27 230.63L657.27 289.15L646 289.15L646 266.15L611.3 266.15L611.3 289.15L599.88 289.15L599.88 230.63L657.27 230.63ZM646.3 253.66L646.3 242.49L611.3 242.49L611.3 253.63L646.3 253.66Z" />
		<path id="Layer" fill-rule="evenodd" class="shp1" d="M316.89 488.39L13.76 488.39L13.76 -0.39L316.89 -0.39L316.89 488.39ZM300.24 12.4L30.45 12.4L30.45 25.59L79.76 25.59L79.76 38.29L30.45 38.29L30.45 51.4L79.76 51.4L79.76 64.27L30.41 64.27L30.41 475.43L300.17 475.43L300.17 461.88L259.48 461.88L259.48 448.88L300.17 448.88L300.17 435.48L259.48 435.48L259.48 422.35L300.24 422.35L300.24 12.4Z" />
	</g>
</svg>