<svg xmlns="http://www.w3.org/2000/svg" viewBox="0 0 1080 1080"><defs><style>.efd499da-8889-4481-a063-812213183ed1{fill:#212322;}.f9a7ede5-a639-4332-a593-3fc7be0b7dbe{fill:#fce300;}</style></defs><g id="a24da2c8-048a-48d9-a328-e868f11f1ed4" data-name="Layer 1"><rect class="efd499da-8889-4481-a063-812213183ed1" width="1091.64" height="1091.64"/><path class="f9a7ede5-a639-4332-a593-3fc7be0b7dbe" d="M464.2,527.16v57.41h13.14V543.88h13.4v40.69h13V543.88h13.56v40.69h13V527.16Z"/><path class="f9a7ede5-a639-4332-a593-3fc7be0b7dbe" d="M530.2,464.33V451.62h-66v64.65h66V503.4H480.89V490.29H530.2v-12.7H480.89V464.33Z"/><path class="f9a7ede5-a639-4332-a593-3fc7be0b7dbe" d="M662.29,451.62v12.7H613v13.27h49.31v12.7H613v13.12h49.31v12.86h-66V451.62Z"/><path class="f9a7ede5-a639-4332-a593-3fc7be0b7dbe" d="M685.47,490.31v13.11h49.3v12.87h-66V451.64h66v12.7h-49.3v26Z"/><path class="f9a7ede5-a639-4332-a593-3fc7be0b7dbe" d="M874,463.31v41.26a11.7,11.7,0,0,0,11.7,11.7h42.61A11.7,11.7,0,0,0,940,504.57V463.31a11.7,11.7,0,0,0-11.71-11.7H885.65A11.7,11.7,0,0,0,874,463.31Zm43.87,40.09H896.1a5.44,5.44,0,0,1-5.44-5.45V469.77a5.43,5.43,0,0,1,5.44-5.44h21.72a5.44,5.44,0,0,1,5.44,5.44V498A5.45,5.45,0,0,1,917.82,503.4Z"/><path class="f9a7ede5-a639-4332-a593-3fc7be0b7dbe" d="M550.74,503.56h39.08v12.71H536.68V451.62h14.06Z"/><path class="f9a7ede5-a639-4332-a593-3fc7be0b7dbe" d="M741.25,451.62H803v12.52H778.9V516.3H765.22V464.14h-24Z"/><path class="f9a7ede5-a639-4332-a593-3fc7be0b7dbe" d="M855.21,491.44l12.33,24.83H852.3l-10.47-21.6c-1.39.07-2.59.07-3.47.07H823.48v21.53H809.42V451.62h14.06v.05c3.43,0,13.65-.05,17.48-.05,7.77,0,25,0,25,21.59C866,484.37,861,488.42,855.21,491.44Zm-7.77-18.25c0-9-3-9-7.34-9H823.48v18h16.4C843.88,482.17,847.44,482.24,847.44,473.19Z"/><path class="f9a7ede5-a639-4332-a593-3fc7be0b7dbe" d="M473.9,596.32c.66,0,1.38,0,2.08.06V593.5c-1.08-.1-2.08-.29-3.23-.29-3.73,0-5.95,1.21-5.95,4.81v2.88h-3.95v2.88h3.95v16.47h3.7V603.78H476V600.9H470.5v-2.71C470.5,596.61,471.51,596.32,473.9,596.32Z"/><path class="f9a7ede5-a639-4332-a593-3fc7be0b7dbe" d="M488.36,600.24c-7.54,0-11.24,4.75-11.24,10.35s3.7,10.33,11.24,10.33,11.23-4.76,11.23-10.33S495.89,600.24,488.36,600.24Zm0,17.58c-5.36,0-7.32-3.74-7.32-7.23s2-7.25,7.32-7.25,7.31,3.73,7.31,7.25S493.71,617.82,488.36,617.82Z"/><path class="f9a7ede5-a639-4332-a593-3fc7be0b7dbe" d="M513.68,600.24a7.43,7.43,0,0,0-6.65,4.21h-.09V600.9h-3.7v19.35h3.7v-9.82c0-4.21,2.56-6.36,6.21-6.36a10.23,10.23,0,0,1,2.62.38v-4A7,7,0,0,0,513.68,600.24Z"/><path class="f9a7ede5-a639-4332-a593-3fc7be0b7dbe" d="M551.51,611.2c0-8-5.39-11-10.48-11-7.54,0-11.24,4.75-11.24,10.35s3.7,10.33,11.24,10.33a10.44,10.44,0,0,0,10-6.53h-3.92c-1.25,2.73-4.14,3.43-6.24,3.43-3.29,0-6.84-2.13-7.13-6.12h17.8Zm-17.7-2.4c.57-3.46,3.64-5.46,7-5.46s6.21,2,6.77,5.46Z"/><path class="f9a7ede5-a639-4332-a593-3fc7be0b7dbe" d="M566.64,600.24c-2.78,0-5.85.88-7.57,3.58H559V600.9h-3.7v19.35H559V609.1c0-3.8,3-5.76,6.36-5.76,4,0,5.73,1.62,5.73,4.47v12.44h3.7V607.07C574.77,602.23,571.29,600.24,566.64,600.24Z"/><path class="f9a7ede5-a639-4332-a593-3fc7be0b7dbe" d="M596.61,600.9v2.85h-.08c-1.44-2.23-4.35-3.29-7.54-3.29-5.13,0-10.57,2.79-10.57,10s5.44,10,10.6,10c2.53,0,5.44-.58,7.51-3.58h.08v2.81c0,3.18-2,5.84-7.21,5.84-3.51,0-5.76-.63-6.43-3.14h-3.7c.79,5.35,5.58,6,9.75,6,8,0,11.29-2.8,11.29-9.76V600.9Zm-7.14,16.44c-4.5,0-7.13-2.85-7.13-6.84s2.63-6.94,7.13-6.94,7.14,3,7.14,6.94S594,617.34,589.47,617.34Z"/><path class="f9a7ede5-a639-4332-a593-3fc7be0b7dbe" d="M604.59,600.9v19.35h3.7V600.9Zm0-7.24v4.05h3.7v-4.05Z"/><path class="f9a7ede5-a639-4332-a593-3fc7be0b7dbe" d="M624.15,600.24c-2.78,0-5.85.88-7.59,3.58h-.07V600.9h-3.7v19.35h3.7V609.1c0-3.8,3-5.76,6.36-5.76,4,0,5.73,1.62,5.73,4.47v12.44h3.69V607.07C632.27,602.23,628.8,600.24,624.15,600.24Z"/><path class="f9a7ede5-a639-4332-a593-3fc7be0b7dbe" d="M657.67,611.2c0-8-5.4-11-10.5-11-7.54,0-11.24,4.75-11.24,10.35s3.7,10.33,11.24,10.33a10.44,10.44,0,0,0,10-6.53h-3.92c-1.24,2.73-4.13,3.43-6.24,3.43-3.29,0-6.84-2.13-7.13-6.12h17.82ZM640,608.8c.57-3.46,3.64-5.46,7-5.46s6.21,2,6.77,5.46Z"/><path class="f9a7ede5-a639-4332-a593-3fc7be0b7dbe" d="M682.31,611.2c0-8-5.39-11-10.49-11-7.53,0-11.23,4.75-11.23,10.35s3.7,10.33,11.23,10.33a10.46,10.46,0,0,0,10-6.53h-3.92c-1.25,2.73-4.15,3.43-6.24,3.43-3.29,0-6.84-2.13-7.13-6.12h17.8Zm-17.7-2.4c.56-3.46,3.63-5.46,7-5.46s6.2,2,6.76,5.46Z"/><path class="f9a7ede5-a639-4332-a593-3fc7be0b7dbe" d="M696.51,600.24a7.44,7.44,0,0,0-6.65,4.21h-.08V600.9h-3.7v19.35h3.7v-9.82c0-4.21,2.56-6.36,6.2-6.36a10.25,10.25,0,0,1,2.63.38v-4A7,7,0,0,0,696.51,600.24Z"/><path class="f9a7ede5-a639-4332-a593-3fc7be0b7dbe" d="M701.13,600.9v19.35h3.69V600.9Zm0-7.24v4.05h3.69v-4.05Z"/><path class="f9a7ede5-a639-4332-a593-3fc7be0b7dbe" d="M720.67,600.24c-2.76,0-5.83.88-7.57,3.58H713V600.9h-3.71v19.35H713V609.1c0-3.8,3-5.76,6.34-5.76,4,0,5.73,1.62,5.73,4.47v12.44h3.7V607.07C728.81,602.23,725.33,600.24,720.67,600.24Z"/><path class="f9a7ede5-a639-4332-a593-3fc7be0b7dbe" d="M750.65,600.9v2.85h-.07c-1.45-2.23-4.36-3.29-7.54-3.29-5.15,0-10.57,2.79-10.57,10s5.42,10,10.61,10a8.47,8.47,0,0,0,7.5-3.58h.07v2.81c0,3.18-2,5.84-7.21,5.84-3.5,0-5.77-.63-6.43-3.14h-3.7c.78,5.35,5.59,6,9.77,6,7.94,0,11.27-2.8,11.27-9.76V600.9Zm-7.13,16.44c-4.52,0-7.14-2.85-7.14-6.84s2.62-6.94,7.14-6.94,7.13,3,7.13,6.94S748,617.34,743.52,617.34Z"/><path class="f9a7ede5-a639-4332-a593-3fc7be0b7dbe" d="M782.74,609.17l-5.25-.7c-2.63-.37-3.23-1.11-3.23-2.4,0-2.29,2.75-3,5.1-3,3.86,0,5.7,1.65,5.82,3.61h3.68c-.32-3.76-3.1-6.49-9.46-6.49-5.43,0-8.84,2.32-8.84,6.24,0,3,2.49,4.77,5.26,5.13l6.1.82c3,.41,3.65,1.21,3.65,2.59s-1.14,3-5.9,3-6.1-2.13-6.1-3.87h-3.71c.41,5.61,5.48,6.75,9.91,6.75,5.92,0,9.72-2.1,9.72-6.62C789.49,611.58,787.62,609.84,782.74,609.17Z"/><path class="f9a7ede5-a639-4332-a593-3fc7be0b7dbe" d="M803.28,600.24c-7.53,0-11.23,4.75-11.23,10.35s3.7,10.33,11.23,10.33,11.24-4.76,11.24-10.33S810.82,600.24,803.28,600.24Zm0,17.58c-5.37,0-7.31-3.74-7.31-7.23s1.94-7.25,7.31-7.25,7.32,3.73,7.32,7.25S808.64,617.82,803.28,617.82Z"/><path class="f9a7ede5-a639-4332-a593-3fc7be0b7dbe" d="M818.17,593.66v26.59h3.7V593.66Z"/><path class="f9a7ede5-a639-4332-a593-3fc7be0b7dbe" d="M842.16,600.9v11.15c0,3.82-3,5.77-6.36,5.77-4,0-5.73-1.62-5.73-4.47V600.9h-3.7v13.18c0,4.84,3.48,6.84,8.13,6.84,2.78,0,5.85-.89,7.59-3.58h.07v2.91h3.7V600.9Z"/><path class="f9a7ede5-a639-4332-a593-3fc7be0b7dbe" d="M861.22,603.78V600.9h-5.54V595H852v5.95h-4v2.88h4v12.57c0,2.8,1.47,4.57,5.1,4.57a23,23,0,0,0,4.12-.26v-3.1a14.3,14.3,0,0,1-2.54.26c-1.89,0-3-.55-3-2.1V603.78Z"/><path class="f9a7ede5-a639-4332-a593-3fc7be0b7dbe" d="M864,600.9v19.35h3.7V600.9Zm0-7.24v4.05h3.7v-4.05Z"/><path class="f9a7ede5-a639-4332-a593-3fc7be0b7dbe" d="M882.62,600.24c-7.53,0-11.22,4.75-11.22,10.35s3.69,10.33,11.22,10.33,11.24-4.76,11.24-10.33S890.18,600.24,882.62,600.24Zm0,17.58c-5.35,0-7.31-3.74-7.31-7.23s2-7.25,7.31-7.25,7.33,3.73,7.33,7.25S888,617.82,882.62,617.82Z"/><path class="f9a7ede5-a639-4332-a593-3fc7be0b7dbe" d="M908.86,600.24c-2.76,0-5.83.88-7.57,3.58h-.07V600.9h-3.7v19.35h3.7V609.1c0-3.8,3-5.76,6.36-5.76,3.94,0,5.73,1.62,5.73,4.47v12.44H917V607.07C917,602.23,913.54,600.24,908.86,600.24Z"/><path class="f9a7ede5-a639-4332-a593-3fc7be0b7dbe" d="M933.26,609.17l-5.25-.7c-2.62-.37-3.2-1.11-3.2-2.4,0-2.29,2.72-3,5.09-3,3.84,0,5.7,1.65,5.8,3.61h3.7c-.34-3.76-3.1-6.49-9.46-6.49-5.44,0-8.83,2.32-8.83,6.24,0,3,2.47,4.77,5.25,5.13l6.08.82c3,.41,3.67,1.21,3.67,2.59s-1.14,3-5.92,3-6.1-2.13-6.1-3.87h-3.68c.39,5.61,5.45,6.75,9.9,6.75,5.9,0,9.72-2.1,9.72-6.62C940,611.58,938.14,609.84,933.26,609.17Z"/><path class="f9a7ede5-a639-4332-a593-3fc7be0b7dbe" d="M609.13,561.52v11.63h43.73v11.41H594.33V527.22h58.53v11.27H609.13v23Z"/><path class="f9a7ede5-a639-4332-a593-3fc7be0b7dbe" d="M896.51,561.52v11.63h43.73v11.41H881.71V527.22h58.53v11.27H896.51v23Z"/><path class="f9a7ede5-a639-4332-a593-3fc7be0b7dbe" d="M806.05,538.49v46.66H794.64V541.43h0V526.62H852v58.53H840.71V538.49Z"/><path class="f9a7ede5-a639-4332-a593-3fc7be0b7dbe" d="M585.87,527.16v11.28H551.18v11.78h34.69V561.5H551.18v11.64h34.69v11.42H538.7v-57.4Z"/><path class="f9a7ede5-a639-4332-a593-3fc7be0b7dbe" d="M703.8,527.17h12.48v57.39H703.8V561.5h-30v23.06H661.33V527.17h12.48v23.06h30Z"/><path class="f9a7ede5-a639-4332-a593-3fc7be0b7dbe" d="M860.77,584.56V527.17h12.48v57.39Z"/><path class="f9a7ede5-a639-4332-a593-3fc7be0b7dbe" d="M725.88,526.63v58.52H737.3v-23H772v23h11.27V526.63Zm11.42,23V538.49h35v11.17Z"/><path class="f9a7ede5-a639-4332-a593-3fc7be0b7dbe" d="M442.89,718.35V295.61H139.76V784.39H442.89v-66Zm-16.65,0H385.48v13.13h40.69v13.4H385.48v13h40.69v13.55H156.41V360.27h49.35V347.4H156.45V334.29h49.31v-12.7H156.45V308.4H426.24Z"/></g></svg>