<svg xmlns="http://www.w3.org/2000/svg" viewBox="0 0 846 319" width="846" height="319">
	<style>
		tspan { white-space:pre }
		.shp0 { fill: #212322 } 
		.shp1 { fill: #fce300 } 
	</style>
	<g id="a37bfe8f-938f-470c-ab23-3ce30bebb869">
		<path id="Layer" class="shp0" d="M-117 -387L974.64 -387L974.64 704.64L-117 704.64L-117 -387Z" />
		<path id="Layer" class="shp1" d="M11.84 140.49L11.84 240L34.59 240L34.59 169.46L57.8 169.46L57.8 240L80.28 240L80.28 169.46L103.77 169.46L103.77 240L126.24 240L126.24 140.49L11.84 140.49Z" />
		<path id="Layer" class="shp1" d="M126.17 31.64L126.17 9.64L11.84 9.64L11.84 121.64L126.17 121.64L126.17 99.34L40.75 99.34L40.75 76.62L126.17 76.62L126.17 54.62L40.75 54.62L40.75 31.62L126.17 31.64Z" />
		<path id="Layer" class="shp1" d="M355 9.62L355 31.62L269.58 31.62L269.58 54.62L355 54.62L355 76.62L269.58 76.62L269.58 99.34L355 99.34L355 121.62L240.66 121.62L240.66 9.62L355 9.62Z" />
		<path id="Layer" class="shp1" d="M395.15 76.65L395.15 99.37L480.57 99.37L480.57 121.66L366.23 121.66L366.23 9.66L480.57 9.66L480.57 31.66L395.15 31.66L395.15 76.66L395.15 76.65Z" />
		<path id="Layer" fill-rule="evenodd" class="shp1" d="M723.23 22.11C724.25 19.65 725.75 17.41 727.63 15.53C729.52 13.65 731.76 12.15 734.23 11.14C736.69 10.12 739.33 9.6 742 9.61L815.73 9.61C818.39 9.61 821.03 10.14 823.49 11.16C825.94 12.17 828.18 13.67 830.06 15.55C831.94 17.43 833.44 19.67 834.45 22.12C835.47 24.58 836 27.22 836 29.88L836 101.35C836 104 835.48 106.63 834.46 109.08C833.45 111.54 831.96 113.77 830.09 115.65C828.22 117.53 826 119.02 823.55 120.05C821.1 121.07 818.47 121.61 815.82 121.62L742 121.62C739.33 121.63 736.69 121.11 734.23 120.09C731.76 119.08 729.52 117.58 727.63 115.7C725.75 113.82 724.25 111.58 723.23 109.12C722.21 106.66 721.68 104.02 721.68 101.35L721.68 29.88C721.68 27.21 722.21 24.57 723.23 22.11ZM797.67 99.32C798.91 99.32 800.13 99.08 801.28 98.6C802.42 98.13 803.46 97.43 804.34 96.56C805.21 95.68 805.91 94.64 806.38 93.5C806.86 92.35 807.1 91.13 807.1 89.89L807.1 41.06C807.1 39.82 806.86 38.6 806.38 37.45C805.91 36.31 805.21 35.27 804.34 34.39C803.46 33.52 802.42 32.82 801.28 32.35C800.13 31.87 798.91 31.63 797.67 31.63L760.05 31.63C758.81 31.63 757.59 31.87 756.44 32.35C755.3 32.82 754.26 33.52 753.38 34.39C752.51 35.27 751.81 36.31 751.34 37.45C750.86 38.6 750.62 39.82 750.62 41.06L750.62 89.89C750.62 91.13 750.86 92.35 751.34 93.5C751.81 94.64 752.51 95.68 753.38 96.56C754.26 97.43 755.3 98.13 756.44 98.6C757.59 99.08 758.81 99.32 760.05 99.32L797.67 99.32Z" />
		<path id="Layer" class="shp1" d="M161.76 99.61L229.45 99.61L229.45 121.61L137.45 121.61L137.45 9.61L161.81 9.61L161.76 99.61Z" />
		<path id="Layer" class="shp1" d="M491.8 9.62L598.8 9.62L598.8 31.32L557 31.32L557 121.67L533.3 121.67L533.3 31.32L491.8 31.32L491.8 9.62Z" />
		<path id="Layer" fill-rule="evenodd" class="shp1" d="M689.2 78.6L710.58 121.6L684.17 121.6L666 84.2C663.6 84.32 661.51 84.33 660 84.33L634.25 84.33L634.25 121.62L609.88 121.62L609.88 9.62L634.25 9.62L634.25 9.71C640.19 9.71 657.89 9.62 664.53 9.62C677.99 9.62 707.88 9.57 707.88 47.02C707.88 66.36 699.29 73.37 689.2 78.6ZM675.76 47C675.76 31.46 670.61 31.44 663.03 31.44L634.25 31.44L634.25 62.57L662.65 62.57C669.59 62.56 675.75 62.67 675.76 47Z" />
		<path id="Layer" class="shp1" d="M28.63 260.29C29.78 260.29 31.02 260.35 32.23 260.41L32.23 255.41C31.77 255.34 31.3 255.29 30.84 255.23C30.38 255.18 29.91 255.13 29.45 255.09C28.98 255.05 28.52 255.01 28.05 254.98C27.58 254.95 27.12 254.93 26.65 254.91C20.18 254.91 16.34 257 16.34 263.24L16.34 268.24L9.49 268.24L9.49 273.24L16.34 273.24L16.34 301.77L22.75 301.77L22.75 273.23L32.23 273.23L32.23 268.23L22.75 268.23L22.75 263.53C22.75 260.79 24.49 260.29 28.63 260.29Z" />
		<path id="Layer" fill-rule="evenodd" class="shp1" d="M73.14 285.02C73.14 294.67 66.74 302.92 53.68 302.92C40.62 302.92 34.21 294.71 34.21 285.02C34.21 275.33 40.62 267.08 53.68 267.08C66.74 267.08 73.14 275.37 73.14 285.02ZM53.68 297.54C63 297.54 66.35 291.11 66.35 285.02C66.35 278.93 62.96 272.46 53.68 272.46C44.4 272.46 41.01 278.97 41.01 285.02C41.01 291.07 44.4 297.54 53.68 297.54Z" />
		<path id="Layer" class="shp1" d="M97.54 267.08C93.32 267.08 89.01 269.08 86.02 274.38L85.88 274.38L85.88 268.24L79.47 268.24L79.47 301.76L85.88 301.76L85.88 284.76C85.88 277.46 90.31 273.76 96.63 273.76C97.01 273.76 97.4 273.78 97.78 273.81C98.16 273.84 98.55 273.88 98.93 273.94C99.31 273.99 99.68 274.06 100.06 274.14C100.44 274.22 100.81 274.31 101.18 274.41L101.18 267.5C100.88 267.42 100.59 267.35 100.28 267.29C99.98 267.23 99.68 267.19 99.38 267.15C99.07 267.12 98.77 267.09 98.46 267.08C98.15 267.07 97.85 267.07 97.54 267.08L97.54 267.08Z" />
		<path id="Layer" fill-rule="evenodd" class="shp1" d="M163.09 286.94L132.25 286.94C132.75 293.85 138.9 297.54 144.6 297.54C148.23 297.54 153.25 296.33 155.41 291.6L162.2 291.6C159.01 299.67 151.51 302.92 144.92 302.92C131.87 302.92 125.46 294.71 125.46 285.02C125.46 275.33 131.87 267.08 144.92 267.08C153.76 267.08 163.09 272.19 163.09 286.08L163.09 286.94ZM156.32 281.91C155.35 275.86 150.48 272.46 144.6 272.46C138.72 272.46 133.43 275.91 132.43 281.91L156.32 281.91Z" />
		<path id="Layer" class="shp1" d="M189.29 267.08C184.48 267.08 179.16 268.62 176.18 273.29L176 273.29L176 268.29L169.59 268.29L169.59 301.81L176 301.81L176 282.45C176 275.86 181.2 272.45 187 272.45C193.85 272.45 196.92 275.26 196.92 280.19L196.92 301.75L203.33 301.75L203.33 278.93C203.38 270.54 197.35 267.08 189.29 267.08Z" />
		<path id="Layer" fill-rule="evenodd" class="shp1" d="M247.63 268.24L247.63 298.96C247.63 311.01 241.84 315.85 228.07 315.85C220.84 315.85 212.54 314.7 211.18 305.43L217.59 305.43C218.72 309.77 222.64 310.86 228.72 310.86C237.82 310.86 241.22 306.25 241.22 300.76L241.22 295.88L241.07 295.88C237.5 301.09 232.45 302.09 228.07 302.09C219.12 302.09 209.7 297.31 209.7 284.81C209.7 272.31 219.12 267.47 228.02 267.47C233.54 267.47 238.59 269.3 241.07 273.17L241.22 273.17L241.22 268.24L247.63 268.24ZM228.84 296.71C236.61 296.71 241.22 291.76 241.22 284.87C241.22 277.98 236.64 272.87 228.84 272.87C221.04 272.87 216.49 277.96 216.49 284.87C216.49 291.78 221.04 296.71 228.84 296.71Z" />
		<path id="Layer" class="shp1" d="M255 268.24L255 301.76L261.41 301.76L261.41 268.24L255 268.24ZM255 255.68L255 262.68L261.41 262.68L261.41 255.68L255 255.68Z" />
		<path id="Layer" class="shp1" d="M288.92 267.08C284.11 267.08 278.79 268.62 275.78 273.29L275.66 273.29L275.66 268.29L269.25 268.29L269.25 301.81L275.66 301.81L275.66 282.45C275.66 275.86 280.83 272.45 286.66 272.45C293.51 272.45 296.58 275.26 296.58 280.19L296.58 301.75L303 301.75L303 278.93C303 270.54 297 267.08 288.92 267.08Z" />
		<path id="Layer" fill-rule="evenodd" class="shp1" d="M347 286.94L316.13 286.94C316.63 293.85 322.77 297.54 328.48 297.54C332.14 297.54 337.13 296.33 339.29 291.6L346.08 291.6C342.89 299.67 335.39 302.92 328.8 302.92C315.75 302.92 309.34 294.71 309.34 285.02C309.34 275.33 315.75 267.08 328.8 267.08C337.63 267.08 347 272.19 347 286.08L347 286.94ZM340.2 281.91C339.23 275.86 334.36 272.46 328.48 272.46C322.6 272.46 317.31 275.91 316.31 281.91L340.2 281.91Z" />
		<path id="Layer" fill-rule="evenodd" class="shp1" d="M389.68 286.94L358.84 286.94C359.34 293.85 365.49 297.54 371.19 297.54C374.82 297.54 379.84 296.33 382 291.6L388.79 291.6C385.6 299.67 378.1 302.92 371.51 302.92C358.46 302.92 352.05 294.71 352.05 285.02C352.05 275.33 358.46 267.08 371.51 267.08C380.35 267.08 389.68 272.19 389.68 286.08L389.68 286.94ZM382.9 281.91C381.92 275.86 377.17 272.46 371.17 272.46C365.29 272.46 360 275.91 359 281.91L382.9 281.91Z" />
		<path id="Layer" class="shp1" d="M414.29 267.08C410.06 267.08 405.75 269.08 402.77 274.38L402.62 274.38L402.62 268.24L396.21 268.24L396.21 301.76L402.62 301.76L402.62 284.76C402.62 277.46 407.05 273.76 413.37 273.76C413.75 273.76 414.14 273.78 414.52 273.81C414.9 273.84 415.29 273.88 415.67 273.94C416.05 273.99 416.42 274.06 416.8 274.14C417.18 274.22 417.55 274.31 417.92 274.41L417.92 267.5C417.63 267.42 417.33 267.35 417.03 267.29C416.73 267.23 416.42 267.19 416.12 267.15C415.82 267.12 415.51 267.09 415.21 267.08C414.9 267.07 414.6 267.07 414.29 267.08L414.29 267.08Z" />
		<path id="Layer" class="shp1" d="M422.29 268.24L422.29 301.76L428.67 301.76L428.67 268.24L422.29 268.24ZM422.29 255.68L422.29 262.68L428.67 262.68L428.67 255.68L422.29 255.68Z" />
		<path id="Layer" class="shp1" d="M456.14 267.08C451.36 267.08 446.04 268.62 443.03 273.29L442.91 273.29L442.91 268.29L436.5 268.29L436.5 301.81L442.91 301.81L442.91 282.45C442.91 275.86 448.08 272.45 453.91 272.45C460.76 272.45 463.83 275.26 463.83 280.19L463.83 301.75L470.24 301.75L470.24 278.93C470.23 270.54 464.21 267.08 456.14 267.08Z" />
		<path id="Layer" fill-rule="evenodd" class="shp1" d="M514.45 268.24L514.45 298.96C514.45 311.01 508.69 315.85 494.93 315.85C487.69 315.85 479.36 314.7 478 305.43L484.49 305.43C485.63 309.77 489.57 310.86 495.63 310.86C504.72 310.86 508.12 306.25 508.12 300.76L508.12 295.88L508 295.88C504.39 301.09 499.34 302.09 495 302.09C486 302.09 476.63 297.31 476.63 284.81C476.63 272.31 486.03 267.47 494.95 267.47C500.44 267.47 505.49 269.3 508 273.17L508.07 273.17L508.07 268.24L514.45 268.24ZM508.07 284.87C508.07 277.98 503.54 272.87 495.72 272.87C487.9 272.87 483.35 277.96 483.35 284.87C483.35 291.78 487.9 296.71 495.72 296.71C503.46 296.71 508.07 291.76 508.07 284.87Z" />
		<path id="Layer" class="shp1" d="M563.66 282.56L554.57 281.35C550.02 280.7 548.98 279.43 548.98 277.19C548.98 273.19 553.74 272.08 557.81 272.08C564.49 272.08 567.68 274.94 567.89 278.34L574.27 278.34C573.71 271.81 568.89 267.08 557.87 267.08C548.48 267.08 542.57 271.08 542.57 277.9C542.57 283.1 546.88 286.17 551.67 286.79L562.25 288.2C567.36 288.91 568.57 290.3 568.57 292.7C568.57 295.1 566.57 297.92 558.35 297.92C550.13 297.92 547.77 294.23 547.77 291.22L541.36 291.22C542.07 300.94 550.84 302.92 558.52 302.92C568.77 302.92 575.36 299.28 575.36 291.45C575.36 286.73 572.11 283.72 563.66 282.56Z" />
		<path id="Layer" fill-rule="evenodd" class="shp1" d="M618.72 285.02C618.72 294.67 612.32 302.92 599.26 302.92C586.2 302.92 579.79 294.71 579.79 285.02C579.79 275.33 586.2 267.08 599.26 267.08C612.31 267.08 618.72 275.37 618.72 285.02ZM599.26 297.54C608.53 297.54 611.93 291.11 611.93 285.02C611.93 278.93 608.57 272.46 599.26 272.46C589.95 272.46 586.58 278.97 586.58 285.02C586.58 291.07 589.95 297.54 599.26 297.54Z" />
		<path id="Layer" class="shp1" d="M625 255.68L625 301.76L631.41 301.76L631.41 255.68L625 255.68Z" />
		<path id="Layer" class="shp1" d="M666.6 268.24L666.6 287.56C666.6 294.17 661.41 297.56 655.6 297.56C648.74 297.56 645.67 294.75 645.67 289.82L645.67 268.24L639.26 268.24L639.26 291.07C639.26 299.46 645.26 302.92 653.35 302.92C658.17 302.92 663.48 301.38 666.5 296.71L666.61 296.71L666.61 301.71L673 301.71L673 268.24L666.6 268.24Z" />
		<path id="Layer" class="shp1" d="M699.63 273.23L699.63 268.23L690 268.23L690 257.93L683.62 257.93L683.62 268.24L676.68 268.24L676.68 273.24L683.62 273.24L683.62 295C683.62 299.84 686.16 302.92 692.45 302.92C693.05 302.93 693.65 302.94 694.24 302.93C694.84 302.91 695.44 302.89 696.03 302.85C696.63 302.81 697.23 302.76 697.82 302.7C698.42 302.64 699.01 302.56 699.6 302.47L699.6 297.1C699.24 297.17 698.87 297.23 698.51 297.28C698.14 297.34 697.78 297.38 697.41 297.42C697.04 297.45 696.67 297.48 696.31 297.5C695.94 297.52 695.57 297.54 695.2 297.54C691.92 297.54 690 296.59 690 293.91L690 273.23L699.63 273.23Z" />
		<path id="Layer" class="shp1" d="M704.5 268.24L704.5 301.76L710.91 301.76L710.91 268.24L704.5 268.24ZM704.5 255.68L704.5 262.68L710.91 262.68L710.91 255.68L704.5 255.68Z" />
		<path id="Layer" fill-rule="evenodd" class="shp1" d="M756.17 285.02C756.17 294.67 749.76 302.92 736.7 302.92C723.64 302.92 717.26 294.71 717.26 285.02C717.26 275.33 723.64 267.08 736.7 267.08C749.79 267.08 756.17 275.37 756.17 285.02ZM736.7 297.54C746 297.54 749.4 291.11 749.4 285.02C749.4 278.93 745.97 272.46 736.7 272.46C727.43 272.46 724.03 278.97 724.03 285.02C724.03 291.07 727.43 297.54 736.7 297.54Z" />
		<path id="Layer" class="shp1" d="M782.16 267.08C777.37 267.08 772.06 268.62 769.04 273.29L768.93 273.29L768.93 268.29L762.52 268.29L762.52 301.81L768.93 301.81L768.93 282.45C768.93 275.86 774.1 272.45 779.93 272.45C786.76 272.45 789.86 275.26 789.86 280.19L789.86 301.75L796.24 301.75L796.24 278.93C796.25 270.54 790.25 267.08 782.16 267.08Z" />
		<path id="Layer" class="shp1" d="M824.43 282.56L815.33 281.35C810.78 280.7 809.78 279.43 809.78 277.19C809.78 273.19 814.5 272.08 818.61 272.08C825.26 272.08 828.48 274.94 828.61 278.34L835.02 278.34C834.43 271.81 829.65 267.08 818.63 267.08C809.21 267.08 803.33 271.08 803.33 277.9C803.33 283.1 807.61 286.17 812.43 286.79L823 288.2C828.14 288.91 829.35 290.3 829.35 292.7C829.35 295.1 827.35 297.92 819.1 297.92C810.85 297.92 808.53 294.23 808.53 291.22L802.15 291.22C802.83 300.94 811.6 302.92 819.31 302.92C829.53 302.92 836.15 299.28 836.15 291.45C836.16 286.73 832.88 283.72 824.43 282.56Z" />
		<path id="Layer" class="shp1" d="M262.91 200L262.91 220.14L338.66 220.14L338.66 239.91L237.27 239.91L237.27 140.6L338.66 140.6L338.66 160.11L262.91 160.11L262.91 200Z" />
		<path id="Layer" class="shp1" d="M760.76 200L760.76 220.14L836.51 220.14L836.51 239.91L735.12 239.91L735.12 140.6L836.51 140.6L836.51 160.11L760.76 160.11L760.76 200Z" />
		<path id="Layer" class="shp1" d="M604 160.11L604 241L584.28 241L584.28 165.21L584.28 165.21L584.28 139.56L683.6 139.56L683.6 241L664.09 241L664.09 160.11L604 160.11Z" />
		<path id="Layer" class="shp1" d="M222.61 140.49L222.61 160L162.52 160L162.52 180.41L222.61 180.41L222.61 200L162.52 200L162.52 220.17L222.61 220.17L222.61 239.96L140.89 239.96L140.89 140.49L222.61 140.49Z" />
		<path id="Layer" class="shp1" d="M426.9 140.5L448.53 140.5L448.53 239.93L426.9 239.93L426.9 200L375 200L375 239.95L353.33 239.95L353.33 140.5L375 140.5L375 180.44L426.9 180.44L426.9 140.5Z" />
		<path id="Layer" class="shp1" d="M698.84 239.93L698.84 140.5L720.46 140.5L720.46 239.93L698.84 239.93Z" />
		<path id="Layer" fill-rule="evenodd" class="shp1" d="M564.5 139.57L564.5 240.94L544.94 240.94L544.94 201.08L484.94 201.08L484.94 240.94L465.17 240.94L465.17 139.57L564.5 139.57ZM545.63 179.46L545.63 160.11L484.94 160.11L484.94 179.46L545.63 179.46Z" />
	</g>
</svg>